<svg width="500" height="500" viewBox="0 0 500 500" fill="none" xmlns="http://www.w3.org/2000/svg">
<g id="Favicon">
<rect width="500" height="500" rx="250" fill="#131313"/>
<path id="Vector" d="M308.208 134.596L275.573 167.203C261.377 181.387 238.383 181.387 224.187 167.203L192.176 135.219C177.855 120.91 154.643 121.066 140.509 135.531L139.074 136.996C77.6419 199.842 77.6419 300.158 139.074 362.973L140.509 364.438C154.643 378.903 177.887 379.027 192.176 364.75L224.187 332.766C238.383 318.582 261.377 318.582 275.573 332.766L308.208 365.373C322.279 379.432 345.055 379.557 359.282 365.654C424.239 302.216 424.239 197.784 359.282 134.346C345.055 120.443 322.279 120.568 308.208 134.627V134.596Z" fill="white"/>
</g>
</svg>
